<svg width="48" height="49" viewBox="0 0 48 49" fill="none" xmlns="http://www.w3.org/2000/svg">
<path d="M19.539 35.0001C28.596 35.0001 33.5505 27.4956 33.5505 20.9991C33.5505 20.7891 33.5505 20.5761 33.5415 20.3661C34.5061 19.6678 35.3386 18.8033 36 17.8131C35.099 18.2103 34.1441 18.4722 33.1665 18.5901C34.1963 17.9745 34.9676 17.006 35.337 15.8646C34.3695 16.4377 33.3105 16.8401 32.2065 17.0541C31.4643 16.2636 30.4821 15.7399 29.4121 15.5642C28.3421 15.3885 27.2441 15.5704 26.288 16.082C25.3319 16.5935 24.5712 17.406 24.1237 18.3937C23.6761 19.3813 23.5668 20.489 23.8125 21.5451C21.8546 21.4469 19.9392 20.9383 18.1906 20.0522C16.4419 19.1661 14.899 17.9223 13.662 16.4016C13.034 17.4862 12.8424 18.7692 13.126 19.99C13.4096 21.2108 14.1472 22.2779 15.189 22.9746C14.4083 22.948 13.6448 22.7384 12.96 22.3626V22.4301C12.9613 23.5663 13.355 24.6672 14.0743 25.5467C14.7937 26.4262 15.7946 27.0304 16.908 27.2571C16.4854 27.3735 16.0488 27.4315 15.6105 27.4296C15.3015 27.4305 14.9931 27.4019 14.6895 27.3441C15.0042 28.3221 15.6169 29.1773 16.4419 29.7898C17.2668 30.4022 18.2627 30.7413 19.29 30.7596C17.5448 32.1303 15.3891 32.8737 13.17 32.8701C12.779 32.8717 12.3882 32.8492 12 32.8026C14.2523 34.2385 16.8679 35.0009 19.539 35.0001Z" fill="black"/>
<rect x="0.5" y="1" width="47" height="47" rx="23.5" stroke="#232323"/>
</svg>
