<svg width="48" height="49" viewBox="0 0 48 49" fill="none" xmlns="http://www.w3.org/2000/svg">
<g clip-path="url(#clip0_606_40)">
<path d="M24 12.5C20.7435 12.5 20.334 12.515 19.0545 12.572C17.775 12.632 16.9035 12.833 16.14 13.13C15.3391 13.4312 14.6137 13.9037 14.0145 14.5145C13.4041 15.114 12.9317 15.8394 12.63 16.64C12.333 17.402 12.1305 18.275 12.072 19.55C12.015 20.8325 12 21.2405 12 24.5015C12 27.7595 12.015 28.1675 12.072 29.447C12.132 30.725 12.333 31.5965 12.63 32.36C12.9375 33.149 13.347 33.818 14.0145 34.4855C14.6805 35.153 15.3495 35.564 16.1385 35.87C16.9035 36.167 17.7735 36.3695 19.0515 36.428C20.3325 36.485 20.7405 36.5 24 36.5C27.2595 36.5 27.666 36.485 28.947 36.428C30.2235 36.368 31.098 36.167 31.8615 35.87C32.6618 35.5686 33.3867 35.0961 33.9855 34.4855C34.653 33.818 35.0625 33.149 35.37 32.36C35.6655 31.5965 35.868 30.725 35.928 29.447C35.985 28.1675 36 27.7595 36 24.5C36 21.2405 35.985 20.8325 35.928 19.5515C35.868 18.275 35.6655 17.402 35.37 16.64C35.0684 15.8393 34.5959 15.114 33.9855 14.5145C33.3864 13.9035 32.661 13.431 31.86 13.13C31.095 12.833 30.222 12.6305 28.9455 12.572C27.6645 12.515 27.258 12.5 23.997 12.5H24.0015H24ZM22.9245 14.663H24.0015C27.2055 14.663 27.585 14.6735 28.8495 14.732C30.0195 14.7845 30.6555 14.981 31.0785 15.1445C31.638 15.362 32.0385 15.623 32.4585 16.043C32.8785 16.463 33.138 16.862 33.3555 17.423C33.5205 17.8445 33.7155 18.4805 33.768 19.6505C33.8265 20.915 33.8385 21.2945 33.8385 24.497C33.8385 27.6995 33.8265 28.0805 33.768 29.345C33.7155 30.515 33.519 31.1495 33.3555 31.5725C33.1631 32.0935 32.856 32.5647 32.457 32.951C32.037 33.371 31.638 33.6305 31.077 33.848C30.657 34.013 30.021 34.208 28.8495 34.262C27.585 34.319 27.2055 34.3325 24.0015 34.3325C20.7975 34.3325 20.4165 34.319 19.152 34.262C17.982 34.208 17.3475 34.013 16.9245 33.848C16.4032 33.6559 15.9317 33.3494 15.5445 32.951C15.1451 32.5641 14.8376 32.0925 14.6445 31.571C14.481 31.1495 14.2845 30.5135 14.232 29.3435C14.175 28.079 14.163 27.6995 14.163 24.494C14.163 21.29 14.175 20.912 14.232 19.6475C14.286 18.4775 14.481 17.8415 14.646 17.4185C14.8635 16.859 15.1245 16.4585 15.5445 16.0385C15.9645 15.6185 16.3635 15.359 16.9245 15.1415C17.3475 14.9765 17.982 14.7815 19.152 14.7275C20.259 14.6765 20.688 14.6615 22.9245 14.66V14.663ZM30.4065 16.655C30.2174 16.655 30.0301 16.6922 29.8554 16.7646C29.6807 16.837 29.522 16.943 29.3883 17.0768C29.2545 17.2105 29.1485 17.3692 29.0761 17.5439C29.0037 17.7186 28.9665 17.9059 28.9665 18.095C28.9665 18.2841 29.0037 18.4714 29.0761 18.6461C29.1485 18.8208 29.2545 18.9795 29.3883 19.1132C29.522 19.247 29.6807 19.353 29.8554 19.4254C30.0301 19.4978 30.2174 19.535 30.4065 19.535C30.7884 19.535 31.1547 19.3833 31.4247 19.1132C31.6948 18.8432 31.8465 18.4769 31.8465 18.095C31.8465 17.7131 31.6948 17.3468 31.4247 17.0768C31.1547 16.8067 30.7884 16.655 30.4065 16.655ZM24.0015 18.338C23.1841 18.3252 22.3723 18.4752 21.6135 18.7792C20.8546 19.0832 20.1638 19.5351 19.5812 20.1086C18.9987 20.6822 18.536 21.3659 18.2203 22.1199C17.9045 22.8739 17.7419 23.6833 17.7419 24.5007C17.7419 25.3182 17.9045 26.1276 18.2203 26.8816C18.536 27.6356 18.9987 28.3193 19.5812 28.8929C20.1638 29.4664 20.8546 29.9183 21.6135 30.2223C22.3723 30.5263 23.1841 30.6763 24.0015 30.6635C25.6193 30.6383 27.1623 29.9779 28.2975 28.8249C29.4326 27.6719 30.0689 26.1188 30.0689 24.5007C30.0689 22.8827 29.4326 21.3296 28.2975 20.1766C27.1623 19.0236 25.6193 18.3632 24.0015 18.338ZM24.0015 20.4995C25.0625 20.4995 26.08 20.921 26.8303 21.6712C27.5805 22.4215 28.002 23.439 28.002 24.5C28.002 25.561 27.5805 26.5785 26.8303 27.3288C26.08 28.079 25.0625 28.5005 24.0015 28.5005C22.9405 28.5005 21.923 28.079 21.1727 27.3288C20.4225 26.5785 20.001 25.561 20.001 24.5C20.001 23.439 20.4225 22.4215 21.1727 21.6712C21.923 20.921 22.9405 20.4995 24.0015 20.4995Z" fill="black"/>
</g>
<rect x="0.5" y="1" width="47" height="47" rx="23.5" stroke="#232323"/>
<defs>
<clipPath id="clip0_606_40">
<rect width="24" height="24" fill="white" transform="translate(12 12.5)"/>
</clipPath>
</defs>
</svg>
